<mxfile host="Electron" modified="2023-05-16T02:22:23.602Z" agent="Mozilla/5.0 (Windows NT 10.0; Win64; x64) AppleWebKit/537.36 (KHTML, like Gecko) draw.io/21.2.8 Chrome/112.0.5615.165 Electron/24.2.0 Safari/537.36" etag="xv1SkENcAwdXIvA4DzbB" version="21.2.8" type="device">
  <diagram name="Page-1" id="2a216829-ef6e-dabb-86c1-c78162f3ba2b">
    <mxGraphModel dx="1685" dy="516" grid="1" gridSize="10" guides="1" tooltips="1" connect="1" arrows="1" fold="1" page="1" pageScale="1" pageWidth="827" pageHeight="1169" background="none" math="0" shadow="0">
      <root>
        <mxCell id="0" />
        <mxCell id="1" parent="0" />
        <mxCell id="aIT9Nde6jPvjy9GI7aws-13" value="Diagrama de Proceso" style="swimlane;html=1;childLayout=stackLayout;resizeParent=1;resizeParentMax=0;horizontal=1;startSize=20;horizontalStack=0;whiteSpace=wrap;labelBackgroundColor=none;fillColor=#FAE5C7;strokeColor=#0F8B8D;fontColor=#143642;" parent="1" vertex="1">
          <mxGeometry x="-490" y="80" width="660" height="2059" as="geometry" />
        </mxCell>
        <mxCell id="aIT9Nde6jPvjy9GI7aws-14" value="Cliente" style="swimlane;html=1;startSize=20;horizontal=0;labelBackgroundColor=none;fillColor=#FAE5C7;strokeColor=#0F8B8D;fontColor=#143642;" parent="aIT9Nde6jPvjy9GI7aws-13" vertex="1">
          <mxGeometry y="20" width="660" height="380" as="geometry" />
        </mxCell>
        <mxCell id="aIT9Nde6jPvjy9GI7aws-17" style="orthogonalLoop=1;jettySize=auto;html=1;edgeStyle=orthogonalEdgeStyle;elbow=vertical;rounded=1;labelBackgroundColor=none;strokeColor=#A8201A;fontColor=default;" parent="aIT9Nde6jPvjy9GI7aws-14" source="7a84cebc1def654-1" target="Akoic9FBrLbFtxi-tUlI-2" edge="1">
          <mxGeometry relative="1" as="geometry" />
        </mxCell>
        <mxCell id="7a84cebc1def654-1" value="Inicio" style="shape=mxgraph.bpmn.shape;html=1;verticalLabelPosition=bottom;labelBackgroundColor=none;verticalAlign=top;perimeter=ellipsePerimeter;outline=standard;symbol=general;fillColor=#FAE5C7;strokeColor=#0F8B8D;fontColor=#143642;" parent="aIT9Nde6jPvjy9GI7aws-14" vertex="1">
          <mxGeometry x="50" y="30" width="50" height="50" as="geometry" />
        </mxCell>
        <mxCell id="Akoic9FBrLbFtxi-tUlI-2" value="Datos de la Carga" style="whiteSpace=wrap;html=1;shape=mxgraph.basic.oval_callout;labelBackgroundColor=none;fillColor=#FAE5C7;strokeColor=#0F8B8D;fontColor=#143642;" parent="aIT9Nde6jPvjy9GI7aws-14" vertex="1">
          <mxGeometry x="215" y="17.5" width="100" height="75" as="geometry" />
        </mxCell>
        <mxCell id="aIT9Nde6jPvjy9GI7aws-22" value="Datos Básicos del Cliente" style="whiteSpace=wrap;html=1;shape=mxgraph.basic.oval_callout;labelBackgroundColor=none;fillColor=#FAE5C7;strokeColor=#0F8B8D;fontColor=#143642;" parent="aIT9Nde6jPvjy9GI7aws-14" vertex="1">
          <mxGeometry x="310" y="80" width="100" height="75" as="geometry" />
        </mxCell>
        <mxCell id="aIT9Nde6jPvjy9GI7aws-29" value="Factura" style="shape=mxgraph.bpmn.data;labelPosition=center;verticalLabelPosition=bottom;align=center;verticalAlign=top;size=15;html=1;labelBackgroundColor=none;fillColor=#FAE5C7;strokeColor=#0F8B8D;fontColor=#143642;" parent="aIT9Nde6jPvjy9GI7aws-14" vertex="1">
          <mxGeometry x="600" y="285" width="40" height="60" as="geometry" />
        </mxCell>
        <mxCell id="aIT9Nde6jPvjy9GI7aws-72" value="Datos de Cotización" style="whiteSpace=wrap;html=1;shape=mxgraph.basic.oval_callout;labelBackgroundColor=none;fillColor=#FAE5C7;strokeColor=#0F8B8D;fontColor=#143642;" parent="aIT9Nde6jPvjy9GI7aws-14" vertex="1">
          <mxGeometry x="500" y="210" width="100" height="75" as="geometry" />
        </mxCell>
        <mxCell id="7_GUIzc6ZlY1Rx7S3d0O-16" value="Datos Extendidos del Cliente" style="whiteSpace=wrap;html=1;shape=mxgraph.basic.oval_callout;labelBackgroundColor=none;fillColor=#FAE5C7;strokeColor=#0F8B8D;fontColor=#143642;" parent="aIT9Nde6jPvjy9GI7aws-14" vertex="1">
          <mxGeometry x="400" y="135" width="100" height="75" as="geometry" />
        </mxCell>
        <mxCell id="aIT9Nde6jPvjy9GI7aws-15" value="Asesor Comercial" style="swimlane;html=1;startSize=20;horizontal=0;labelBackgroundColor=none;fillColor=#FAE5C7;strokeColor=#0F8B8D;fontColor=#143642;" parent="aIT9Nde6jPvjy9GI7aws-13" vertex="1">
          <mxGeometry y="400" width="660" height="689" as="geometry" />
        </mxCell>
        <mxCell id="aIT9Nde6jPvjy9GI7aws-52" style="edgeStyle=orthogonalEdgeStyle;orthogonalLoop=1;jettySize=auto;html=1;elbow=vertical;rounded=1;labelBackgroundColor=none;strokeColor=#A8201A;fontColor=default;" parent="aIT9Nde6jPvjy9GI7aws-15" source="aIT9Nde6jPvjy9GI7aws-12" target="7a84cebc1def654-2" edge="1">
          <mxGeometry relative="1" as="geometry" />
        </mxCell>
        <mxCell id="aIT9Nde6jPvjy9GI7aws-12" value="«datastore»&lt;br&gt;&lt;b&gt;&lt;u&gt;CLIENTE&lt;/u&gt;&lt;/b&gt;" style="html=1;whiteSpace=wrap;movable=1;resizable=1;rotatable=1;deletable=1;editable=1;locked=0;connectable=1;labelBackgroundColor=none;fillColor=#FAE5C7;strokeColor=#0F8B8D;fontColor=#143642;" parent="aIT9Nde6jPvjy9GI7aws-15" vertex="1">
          <mxGeometry x="30" y="40" width="110" height="50" as="geometry" />
        </mxCell>
        <mxCell id="aIT9Nde6jPvjy9GI7aws-25" value="«datastore»&lt;br&gt;&lt;b&gt;&lt;u&gt;FACTURA&lt;/u&gt;&lt;/b&gt;" style="html=1;whiteSpace=wrap;movable=1;resizable=1;rotatable=1;deletable=1;editable=1;locked=0;connectable=1;labelBackgroundColor=none;fillColor=#FAE5C7;strokeColor=#0F8B8D;fontColor=#143642;" parent="aIT9Nde6jPvjy9GI7aws-15" vertex="1">
          <mxGeometry x="30" y="480" width="110" height="50" as="geometry" />
        </mxCell>
        <mxCell id="aIT9Nde6jPvjy9GI7aws-59" style="edgeStyle=orthogonalEdgeStyle;orthogonalLoop=1;jettySize=auto;html=1;elbow=vertical;rounded=1;labelBackgroundColor=none;strokeColor=#A8201A;fontColor=default;" parent="aIT9Nde6jPvjy9GI7aws-15" source="7a84cebc1def654-2" target="aIT9Nde6jPvjy9GI7aws-36" edge="1">
          <mxGeometry relative="1" as="geometry" />
        </mxCell>
        <mxCell id="7a84cebc1def654-2" value="Ingresar Cliente" style="shape=ext;rounded=1;html=1;whiteSpace=wrap;labelBackgroundColor=none;fillColor=#FAE5C7;strokeColor=#0F8B8D;fontColor=#143642;" parent="aIT9Nde6jPvjy9GI7aws-15" vertex="1">
          <mxGeometry x="210" y="40" width="110" height="50" as="geometry" />
        </mxCell>
        <mxCell id="aIT9Nde6jPvjy9GI7aws-40" style="edgeStyle=orthogonalEdgeStyle;orthogonalLoop=1;jettySize=auto;html=1;elbow=vertical;rounded=1;labelBackgroundColor=none;strokeColor=#A8201A;fontColor=default;" parent="aIT9Nde6jPvjy9GI7aws-15" source="aIT9Nde6jPvjy9GI7aws-36" target="aIT9Nde6jPvjy9GI7aws-39" edge="1">
          <mxGeometry relative="1" as="geometry" />
        </mxCell>
        <mxCell id="aIT9Nde6jPvjy9GI7aws-41" value="No" style="edgeLabel;html=1;align=center;verticalAlign=middle;resizable=0;points=[];labelBackgroundColor=none;fontColor=#143642;" parent="aIT9Nde6jPvjy9GI7aws-40" vertex="1" connectable="0">
          <mxGeometry x="-0.3946" y="-2" relative="1" as="geometry">
            <mxPoint as="offset" />
          </mxGeometry>
        </mxCell>
        <mxCell id="aIT9Nde6jPvjy9GI7aws-44" value="Sí" style="edgeStyle=orthogonalEdgeStyle;orthogonalLoop=1;jettySize=auto;html=1;entryX=0.25;entryY=0.5;entryDx=0;entryDy=0;entryPerimeter=0;exitX=0;exitY=0.5;exitDx=0;exitDy=0;exitPerimeter=0;elbow=vertical;rounded=1;labelBackgroundColor=none;strokeColor=#A8201A;fontColor=default;" parent="aIT9Nde6jPvjy9GI7aws-15" source="aIT9Nde6jPvjy9GI7aws-36" target="aIT9Nde6jPvjy9GI7aws-70" edge="1">
          <mxGeometry relative="1" as="geometry" />
        </mxCell>
        <mxCell id="aIT9Nde6jPvjy9GI7aws-36" value="Existe Cliente" style="points=[[0.25,0.25,0],[0.5,0,0],[0.75,0.25,0],[1,0.5,0],[0.75,0.75,0],[0.5,1,0],[0.25,0.75,0],[0,0.5,0]];shape=mxgraph.bpmn.gateway2;html=1;verticalLabelPosition=bottom;labelBackgroundColor=none;verticalAlign=top;align=center;perimeter=rhombusPerimeter;outlineConnect=0;outline=none;symbol=none;horizontal=1;fillColor=#FAE5C7;strokeColor=#0F8B8D;fontColor=#143642;" parent="aIT9Nde6jPvjy9GI7aws-15" vertex="1">
          <mxGeometry x="240" y="155" width="50" height="50" as="geometry" />
        </mxCell>
        <mxCell id="aIT9Nde6jPvjy9GI7aws-54" style="edgeStyle=orthogonalEdgeStyle;orthogonalLoop=1;jettySize=auto;html=1;entryX=0.75;entryY=0.5;entryDx=0;entryDy=0;entryPerimeter=0;exitX=1;exitY=0.5;exitDx=0;exitDy=0;elbow=vertical;rounded=1;labelBackgroundColor=none;strokeColor=#A8201A;fontColor=default;" parent="aIT9Nde6jPvjy9GI7aws-15" source="aIT9Nde6jPvjy9GI7aws-39" target="aIT9Nde6jPvjy9GI7aws-70" edge="1">
          <mxGeometry relative="1" as="geometry" />
        </mxCell>
        <mxCell id="aIT9Nde6jPvjy9GI7aws-39" value="Registrar Cliente" style="shape=ext;rounded=1;html=1;whiteSpace=wrap;labelBackgroundColor=none;fillColor=#FAE5C7;strokeColor=#0F8B8D;fontColor=#143642;" parent="aIT9Nde6jPvjy9GI7aws-15" vertex="1">
          <mxGeometry x="330" y="155" width="110" height="50" as="geometry" />
        </mxCell>
        <mxCell id="aIT9Nde6jPvjy9GI7aws-62" style="edgeStyle=orthogonalEdgeStyle;orthogonalLoop=1;jettySize=auto;html=1;elbow=vertical;rounded=1;labelBackgroundColor=none;strokeColor=#A8201A;fontColor=default;" parent="aIT9Nde6jPvjy9GI7aws-15" source="aIT9Nde6jPvjy9GI7aws-43" target="aIT9Nde6jPvjy9GI7aws-61" edge="1">
          <mxGeometry relative="1" as="geometry" />
        </mxCell>
        <mxCell id="aIT9Nde6jPvjy9GI7aws-43" value="Ingresa Datos de Carga" style="shape=ext;rounded=1;html=1;whiteSpace=wrap;labelBackgroundColor=none;fillColor=#FAE5C7;strokeColor=#0F8B8D;fontColor=#143642;" parent="aIT9Nde6jPvjy9GI7aws-15" vertex="1">
          <mxGeometry x="285" y="380" width="110" height="50" as="geometry" />
        </mxCell>
        <mxCell id="aIT9Nde6jPvjy9GI7aws-66" style="edgeStyle=orthogonalEdgeStyle;orthogonalLoop=1;jettySize=auto;html=1;elbow=vertical;rounded=1;labelBackgroundColor=none;strokeColor=#A8201A;fontColor=default;" parent="aIT9Nde6jPvjy9GI7aws-15" source="aIT9Nde6jPvjy9GI7aws-61" target="aIT9Nde6jPvjy9GI7aws-65" edge="1">
          <mxGeometry relative="1" as="geometry" />
        </mxCell>
        <mxCell id="aIT9Nde6jPvjy9GI7aws-61" value="Cotizar" style="shape=ext;rounded=1;html=1;whiteSpace=wrap;labelBackgroundColor=none;fillColor=#FAE5C7;strokeColor=#0F8B8D;fontColor=#143642;" parent="aIT9Nde6jPvjy9GI7aws-15" vertex="1">
          <mxGeometry x="450" y="380" width="110" height="50" as="geometry" />
        </mxCell>
        <mxCell id="aIT9Nde6jPvjy9GI7aws-67" style="edgeStyle=orthogonalEdgeStyle;orthogonalLoop=1;jettySize=auto;html=1;elbow=vertical;rounded=1;labelBackgroundColor=none;strokeColor=#A8201A;fontColor=default;" parent="aIT9Nde6jPvjy9GI7aws-15" source="aIT9Nde6jPvjy9GI7aws-65" target="aIT9Nde6jPvjy9GI7aws-25" edge="1">
          <mxGeometry relative="1" as="geometry" />
        </mxCell>
        <mxCell id="aIT9Nde6jPvjy9GI7aws-69" style="edgeStyle=orthogonalEdgeStyle;orthogonalLoop=1;jettySize=auto;html=1;elbow=vertical;rounded=1;labelBackgroundColor=none;strokeColor=#A8201A;fontColor=default;" parent="aIT9Nde6jPvjy9GI7aws-15" source="aIT9Nde6jPvjy9GI7aws-65" target="aIT9Nde6jPvjy9GI7aws-68" edge="1">
          <mxGeometry relative="1" as="geometry" />
        </mxCell>
        <mxCell id="aIT9Nde6jPvjy9GI7aws-65" value="Facturar" style="shape=ext;rounded=1;html=1;whiteSpace=wrap;labelBackgroundColor=none;fillColor=#FAE5C7;strokeColor=#0F8B8D;fontColor=#143642;" parent="aIT9Nde6jPvjy9GI7aws-15" vertex="1">
          <mxGeometry x="450" y="480" width="110" height="50" as="geometry" />
        </mxCell>
        <mxCell id="aIT9Nde6jPvjy9GI7aws-68" value="Genera Orden de Transporte" style="shape=ext;rounded=1;html=1;whiteSpace=wrap;labelBackgroundColor=none;fillColor=#FAE5C7;strokeColor=#0F8B8D;fontColor=#143642;" parent="aIT9Nde6jPvjy9GI7aws-15" vertex="1">
          <mxGeometry x="450" y="580" width="110" height="50" as="geometry" />
        </mxCell>
        <mxCell id="aIT9Nde6jPvjy9GI7aws-70" value="" style="shape=line;html=1;strokeWidth=6;strokeColor=#0F8B8D;labelBackgroundColor=none;fillColor=#FAE5C7;fontColor=#143642;" parent="aIT9Nde6jPvjy9GI7aws-15" vertex="1">
          <mxGeometry x="240" y="310" width="200" height="10" as="geometry" />
        </mxCell>
        <mxCell id="aIT9Nde6jPvjy9GI7aws-71" value="" style="edgeStyle=orthogonalEdgeStyle;html=1;verticalAlign=bottom;endArrow=open;endSize=8;strokeColor=#A8201A;entryX=0.5;entryY=0;entryDx=0;entryDy=0;elbow=vertical;rounded=1;labelBackgroundColor=none;fontColor=default;" parent="aIT9Nde6jPvjy9GI7aws-15" source="aIT9Nde6jPvjy9GI7aws-70" target="aIT9Nde6jPvjy9GI7aws-43" edge="1">
          <mxGeometry relative="1" as="geometry">
            <mxPoint x="270" y="410" as="targetPoint" />
          </mxGeometry>
        </mxCell>
        <mxCell id="aIT9Nde6jPvjy9GI7aws-56" style="edgeStyle=orthogonalEdgeStyle;orthogonalLoop=1;jettySize=auto;html=1;exitX=0.5;exitY=0.84;exitDx=0;exitDy=0;exitPerimeter=0;elbow=vertical;rounded=1;labelBackgroundColor=none;strokeColor=#A8201A;fontColor=default;" parent="aIT9Nde6jPvjy9GI7aws-13" source="Akoic9FBrLbFtxi-tUlI-2" target="7a84cebc1def654-2" edge="1">
          <mxGeometry relative="1" as="geometry" />
        </mxCell>
        <mxCell id="aIT9Nde6jPvjy9GI7aws-63" style="edgeStyle=orthogonalEdgeStyle;orthogonalLoop=1;jettySize=auto;html=1;exitX=0.5;exitY=0;exitDx=0;exitDy=0;entryX=0.5;entryY=0.84;entryDx=0;entryDy=0;entryPerimeter=0;elbow=vertical;rounded=1;labelBackgroundColor=none;strokeColor=#A8201A;fontColor=default;" parent="aIT9Nde6jPvjy9GI7aws-13" source="aIT9Nde6jPvjy9GI7aws-61" target="aIT9Nde6jPvjy9GI7aws-72" edge="1">
          <mxGeometry relative="1" as="geometry" />
        </mxCell>
        <mxCell id="aIT9Nde6jPvjy9GI7aws-64" style="edgeStyle=orthogonalEdgeStyle;orthogonalLoop=1;jettySize=auto;html=1;entryX=1;entryY=0.5;entryDx=0;entryDy=0;exitX=0.5;exitY=0.84;exitDx=0;exitDy=0;exitPerimeter=0;elbow=vertical;rounded=1;labelBackgroundColor=none;strokeColor=#A8201A;fontColor=default;" parent="aIT9Nde6jPvjy9GI7aws-13" source="aIT9Nde6jPvjy9GI7aws-22" target="7a84cebc1def654-2" edge="1">
          <mxGeometry relative="1" as="geometry" />
        </mxCell>
        <mxCell id="aIT9Nde6jPvjy9GI7aws-73" style="edgeStyle=orthogonalEdgeStyle;orthogonalLoop=1;jettySize=auto;html=1;entryX=0.5;entryY=1;entryDx=0;entryDy=0;entryPerimeter=0;elbow=vertical;rounded=1;labelBackgroundColor=none;strokeColor=#A8201A;fontColor=default;" parent="aIT9Nde6jPvjy9GI7aws-13" source="aIT9Nde6jPvjy9GI7aws-65" target="aIT9Nde6jPvjy9GI7aws-29" edge="1">
          <mxGeometry relative="1" as="geometry">
            <mxPoint x="730" y="570" as="targetPoint" />
          </mxGeometry>
        </mxCell>
        <mxCell id="aIT9Nde6jPvjy9GI7aws-74" style="edgeStyle=orthogonalEdgeStyle;orthogonalLoop=1;jettySize=auto;html=1;entryX=1;entryY=0.25;entryDx=0;entryDy=0;exitX=0.5;exitY=1;exitDx=0;exitDy=0;elbow=vertical;rounded=1;labelBackgroundColor=none;strokeColor=#A8201A;fontColor=default;" parent="aIT9Nde6jPvjy9GI7aws-13" source="aIT9Nde6jPvjy9GI7aws-68" target="aIT9Nde6jPvjy9GI7aws-26" edge="1">
          <mxGeometry relative="1" as="geometry" />
        </mxCell>
        <mxCell id="aIT9Nde6jPvjy9GI7aws-16" value="Encargado de Logística" style="swimlane;html=1;startSize=20;horizontal=0;labelBackgroundColor=none;fillColor=#FAE5C7;strokeColor=#0F8B8D;fontColor=#143642;" parent="aIT9Nde6jPvjy9GI7aws-13" vertex="1">
          <mxGeometry y="1089" width="660" height="970" as="geometry" />
        </mxCell>
        <mxCell id="aIT9Nde6jPvjy9GI7aws-80" style="edgeStyle=orthogonalEdgeStyle;orthogonalLoop=1;jettySize=auto;html=1;elbow=vertical;rounded=1;labelBackgroundColor=none;strokeColor=#A8201A;fontColor=default;" parent="aIT9Nde6jPvjy9GI7aws-16" source="aIT9Nde6jPvjy9GI7aws-27" target="aIT9Nde6jPvjy9GI7aws-79" edge="1">
          <mxGeometry relative="1" as="geometry" />
        </mxCell>
        <mxCell id="aIT9Nde6jPvjy9GI7aws-27" value="«datastore»&lt;br&gt;&lt;b&gt;&lt;u&gt;CHOFER&lt;/u&gt;&lt;/b&gt;" style="html=1;whiteSpace=wrap;movable=1;resizable=1;rotatable=1;deletable=1;editable=1;locked=0;connectable=1;labelBackgroundColor=none;fillColor=#FAE5C7;strokeColor=#0F8B8D;fontColor=#143642;" parent="aIT9Nde6jPvjy9GI7aws-16" vertex="1">
          <mxGeometry x="160" y="81" width="110" height="50" as="geometry" />
        </mxCell>
        <mxCell id="aIT9Nde6jPvjy9GI7aws-85" style="edgeStyle=orthogonalEdgeStyle;orthogonalLoop=1;jettySize=auto;html=1;elbow=vertical;rounded=1;labelBackgroundColor=none;strokeColor=#A8201A;fontColor=default;" parent="aIT9Nde6jPvjy9GI7aws-16" source="aIT9Nde6jPvjy9GI7aws-28" target="aIT9Nde6jPvjy9GI7aws-84" edge="1">
          <mxGeometry relative="1" as="geometry" />
        </mxCell>
        <mxCell id="aIT9Nde6jPvjy9GI7aws-28" value="«datastore»&lt;br&gt;&lt;b&gt;&lt;u&gt;CAMIÓN&lt;/u&gt;&lt;/b&gt;" style="html=1;whiteSpace=wrap;movable=1;resizable=1;rotatable=1;deletable=1;editable=1;locked=0;connectable=1;labelBackgroundColor=none;fillColor=#FAE5C7;strokeColor=#0F8B8D;fontColor=#143642;" parent="aIT9Nde6jPvjy9GI7aws-16" vertex="1">
          <mxGeometry x="50" y="280" width="110" height="50" as="geometry" />
        </mxCell>
        <mxCell id="7_GUIzc6ZlY1Rx7S3d0O-5" style="edgeStyle=orthogonalEdgeStyle;orthogonalLoop=1;jettySize=auto;html=1;entryX=1;entryY=0.5;entryDx=0;entryDy=0;elbow=vertical;rounded=1;labelBackgroundColor=none;strokeColor=#A8201A;fontColor=default;" parent="aIT9Nde6jPvjy9GI7aws-16" source="aIT9Nde6jPvjy9GI7aws-31" target="7_GUIzc6ZlY1Rx7S3d0O-4" edge="1">
          <mxGeometry relative="1" as="geometry" />
        </mxCell>
        <mxCell id="aIT9Nde6jPvjy9GI7aws-31" value="Remito" style="shape=mxgraph.bpmn.data;labelPosition=center;verticalLabelPosition=bottom;align=center;verticalAlign=top;size=15;html=1;labelBackgroundColor=none;fillColor=#FAE5C7;strokeColor=#0F8B8D;fontColor=#143642;" parent="aIT9Nde6jPvjy9GI7aws-16" vertex="1">
          <mxGeometry x="520" y="582" width="40" height="60" as="geometry" />
        </mxCell>
        <mxCell id="aIT9Nde6jPvjy9GI7aws-76" style="edgeStyle=orthogonalEdgeStyle;orthogonalLoop=1;jettySize=auto;html=1;entryX=0.5;entryY=0;entryDx=0;entryDy=0;entryPerimeter=0;elbow=vertical;rounded=1;labelBackgroundColor=none;strokeColor=#A8201A;fontColor=default;" parent="aIT9Nde6jPvjy9GI7aws-16" source="aIT9Nde6jPvjy9GI7aws-30" target="aIT9Nde6jPvjy9GI7aws-75" edge="1">
          <mxGeometry relative="1" as="geometry" />
        </mxCell>
        <mxCell id="aIT9Nde6jPvjy9GI7aws-30" value="Hoja de Ruta" style="shape=mxgraph.bpmn.data;labelPosition=center;verticalLabelPosition=bottom;align=center;verticalAlign=top;size=15;html=1;labelBackgroundColor=none;fillColor=#FAE5C7;strokeColor=#0F8B8D;fontColor=#143642;" parent="aIT9Nde6jPvjy9GI7aws-16" vertex="1">
          <mxGeometry x="520" y="466" width="40" height="60" as="geometry" />
        </mxCell>
        <mxCell id="aIT9Nde6jPvjy9GI7aws-77" style="edgeStyle=orthogonalEdgeStyle;orthogonalLoop=1;jettySize=auto;html=1;exitX=0.5;exitY=1;exitDx=0;exitDy=0;exitPerimeter=0;elbow=vertical;rounded=1;labelBackgroundColor=none;strokeColor=#A8201A;fontColor=default;" parent="aIT9Nde6jPvjy9GI7aws-16" source="aIT9Nde6jPvjy9GI7aws-75" target="aIT9Nde6jPvjy9GI7aws-31" edge="1">
          <mxGeometry relative="1" as="geometry" />
        </mxCell>
        <mxCell id="aIT9Nde6jPvjy9GI7aws-75" value="" style="points=[[0.145,0.145,0],[0.5,0,0],[0.855,0.145,0],[1,0.5,0],[0.855,0.855,0],[0.5,1,0],[0.145,0.855,0],[0,0.5,0]];shape=mxgraph.bpmn.event;html=1;verticalLabelPosition=bottom;labelBackgroundColor=none;verticalAlign=top;align=center;perimeter=ellipsePerimeter;outlineConnect=0;aspect=fixed;outline=standard;symbol=timer;fillColor=#FAE5C7;strokeColor=#0F8B8D;fontColor=#143642;" parent="aIT9Nde6jPvjy9GI7aws-16" vertex="1">
          <mxGeometry x="600" y="542" width="50" height="50" as="geometry" />
        </mxCell>
        <mxCell id="aIT9Nde6jPvjy9GI7aws-78" value="Fin" style="shape=mxgraph.bpmn.shape;html=1;verticalLabelPosition=bottom;labelBackgroundColor=none;verticalAlign=top;perimeter=ellipsePerimeter;outline=end;symbol=general;fillColor=#FAE5C7;strokeColor=#0F8B8D;fontColor=#143642;" parent="aIT9Nde6jPvjy9GI7aws-16" vertex="1">
          <mxGeometry x="80" y="861" width="50" height="50" as="geometry" />
        </mxCell>
        <mxCell id="aIT9Nde6jPvjy9GI7aws-83" style="edgeStyle=orthogonalEdgeStyle;orthogonalLoop=1;jettySize=auto;html=1;elbow=vertical;rounded=1;labelBackgroundColor=none;strokeColor=#A8201A;fontColor=default;" parent="aIT9Nde6jPvjy9GI7aws-16" source="aIT9Nde6jPvjy9GI7aws-79" target="aIT9Nde6jPvjy9GI7aws-82" edge="1">
          <mxGeometry relative="1" as="geometry" />
        </mxCell>
        <mxCell id="aIT9Nde6jPvjy9GI7aws-79" value="Asignar Choferes" style="shape=ext;rounded=1;html=1;whiteSpace=wrap;labelBackgroundColor=none;fillColor=#FAE5C7;strokeColor=#0F8B8D;fontColor=#143642;" parent="aIT9Nde6jPvjy9GI7aws-16" vertex="1">
          <mxGeometry x="335" y="81" width="110" height="50" as="geometry" />
        </mxCell>
        <mxCell id="aIT9Nde6jPvjy9GI7aws-86" style="edgeStyle=orthogonalEdgeStyle;orthogonalLoop=1;jettySize=auto;html=1;entryX=0.5;entryY=0;entryDx=0;entryDy=0;elbow=vertical;rounded=1;labelBackgroundColor=none;strokeColor=#A8201A;fontColor=default;" parent="aIT9Nde6jPvjy9GI7aws-16" source="aIT9Nde6jPvjy9GI7aws-82" target="aIT9Nde6jPvjy9GI7aws-84" edge="1">
          <mxGeometry relative="1" as="geometry" />
        </mxCell>
        <mxCell id="aIT9Nde6jPvjy9GI7aws-82" value="Asignar Viáticos" style="shape=ext;rounded=1;html=1;whiteSpace=wrap;labelBackgroundColor=none;fillColor=#FAE5C7;strokeColor=#0F8B8D;fontColor=#143642;" parent="aIT9Nde6jPvjy9GI7aws-16" vertex="1">
          <mxGeometry x="335" y="185" width="110" height="50" as="geometry" />
        </mxCell>
        <mxCell id="aIT9Nde6jPvjy9GI7aws-88" style="edgeStyle=orthogonalEdgeStyle;orthogonalLoop=1;jettySize=auto;html=1;elbow=vertical;rounded=1;labelBackgroundColor=none;strokeColor=#A8201A;fontColor=default;" parent="aIT9Nde6jPvjy9GI7aws-16" source="aIT9Nde6jPvjy9GI7aws-84" target="aIT9Nde6jPvjy9GI7aws-87" edge="1">
          <mxGeometry relative="1" as="geometry" />
        </mxCell>
        <mxCell id="aIT9Nde6jPvjy9GI7aws-84" value="Asignar Camiones" style="shape=ext;rounded=1;html=1;whiteSpace=wrap;labelBackgroundColor=none;fillColor=#FAE5C7;strokeColor=#0F8B8D;fontColor=#143642;" parent="aIT9Nde6jPvjy9GI7aws-16" vertex="1">
          <mxGeometry x="335" y="280" width="110" height="50" as="geometry" />
        </mxCell>
        <mxCell id="7_GUIzc6ZlY1Rx7S3d0O-2" style="edgeStyle=orthogonalEdgeStyle;orthogonalLoop=1;jettySize=auto;html=1;elbow=vertical;rounded=1;labelBackgroundColor=none;strokeColor=#A8201A;fontColor=default;" parent="aIT9Nde6jPvjy9GI7aws-16" source="aIT9Nde6jPvjy9GI7aws-87" target="7_GUIzc6ZlY1Rx7S3d0O-1" edge="1">
          <mxGeometry relative="1" as="geometry" />
        </mxCell>
        <mxCell id="aIT9Nde6jPvjy9GI7aws-87" value="Asignar Combustible" style="shape=ext;rounded=1;html=1;whiteSpace=wrap;labelBackgroundColor=none;fillColor=#FAE5C7;strokeColor=#0F8B8D;fontColor=#143642;" parent="aIT9Nde6jPvjy9GI7aws-16" vertex="1">
          <mxGeometry x="335" y="380" width="110" height="50" as="geometry" />
        </mxCell>
        <mxCell id="7_GUIzc6ZlY1Rx7S3d0O-3" style="edgeStyle=orthogonalEdgeStyle;orthogonalLoop=1;jettySize=auto;html=1;entryX=0;entryY=0.5;entryDx=0;entryDy=0;entryPerimeter=0;elbow=vertical;rounded=1;labelBackgroundColor=none;strokeColor=#A8201A;fontColor=default;" parent="aIT9Nde6jPvjy9GI7aws-16" source="7_GUIzc6ZlY1Rx7S3d0O-1" target="aIT9Nde6jPvjy9GI7aws-30" edge="1">
          <mxGeometry relative="1" as="geometry" />
        </mxCell>
        <mxCell id="7_GUIzc6ZlY1Rx7S3d0O-1" value="Generar Hoja de Ruta" style="shape=ext;rounded=1;html=1;whiteSpace=wrap;labelBackgroundColor=none;fillColor=#FAE5C7;strokeColor=#0F8B8D;fontColor=#143642;" parent="aIT9Nde6jPvjy9GI7aws-16" vertex="1">
          <mxGeometry x="335" y="471" width="110" height="50" as="geometry" />
        </mxCell>
        <mxCell id="7_GUIzc6ZlY1Rx7S3d0O-9" style="edgeStyle=orthogonalEdgeStyle;orthogonalLoop=1;jettySize=auto;html=1;entryX=1;entryY=0.5;entryDx=0;entryDy=0;elbow=vertical;rounded=1;labelBackgroundColor=none;strokeColor=#A8201A;fontColor=default;" parent="aIT9Nde6jPvjy9GI7aws-16" source="7_GUIzc6ZlY1Rx7S3d0O-4" target="7_GUIzc6ZlY1Rx7S3d0O-6" edge="1">
          <mxGeometry relative="1" as="geometry" />
        </mxCell>
        <mxCell id="7_GUIzc6ZlY1Rx7S3d0O-4" value="Finalizar Servicio" style="shape=ext;rounded=1;html=1;whiteSpace=wrap;labelBackgroundColor=none;fillColor=#FAE5C7;strokeColor=#0F8B8D;fontColor=#143642;" parent="aIT9Nde6jPvjy9GI7aws-16" vertex="1">
          <mxGeometry x="260" y="587" width="110" height="50" as="geometry" />
        </mxCell>
        <mxCell id="7_GUIzc6ZlY1Rx7S3d0O-10" style="edgeStyle=orthogonalEdgeStyle;orthogonalLoop=1;jettySize=auto;html=1;entryX=1;entryY=0.5;entryDx=0;entryDy=0;elbow=vertical;rounded=1;labelBackgroundColor=none;strokeColor=#A8201A;fontColor=default;" parent="aIT9Nde6jPvjy9GI7aws-16" source="7_GUIzc6ZlY1Rx7S3d0O-6" target="7_GUIzc6ZlY1Rx7S3d0O-7" edge="1">
          <mxGeometry relative="1" as="geometry" />
        </mxCell>
        <mxCell id="7_GUIzc6ZlY1Rx7S3d0O-12" style="edgeStyle=orthogonalEdgeStyle;orthogonalLoop=1;jettySize=auto;html=1;entryX=0.5;entryY=1;entryDx=0;entryDy=0;elbow=vertical;rounded=1;labelBackgroundColor=none;strokeColor=#A8201A;fontColor=default;" parent="aIT9Nde6jPvjy9GI7aws-16" source="7_GUIzc6ZlY1Rx7S3d0O-6" target="aIT9Nde6jPvjy9GI7aws-27" edge="1">
          <mxGeometry relative="1" as="geometry" />
        </mxCell>
        <mxCell id="7_GUIzc6ZlY1Rx7S3d0O-6" value="Actualizar Estado Chofer" style="shape=ext;rounded=1;html=1;whiteSpace=wrap;labelBackgroundColor=none;fillColor=#FAE5C7;strokeColor=#0F8B8D;fontColor=#143642;" parent="aIT9Nde6jPvjy9GI7aws-16" vertex="1">
          <mxGeometry x="160" y="671" width="110" height="50" as="geometry" />
        </mxCell>
        <mxCell id="7_GUIzc6ZlY1Rx7S3d0O-11" style="edgeStyle=orthogonalEdgeStyle;orthogonalLoop=1;jettySize=auto;html=1;elbow=vertical;rounded=1;labelBackgroundColor=none;strokeColor=#A8201A;fontColor=default;" parent="aIT9Nde6jPvjy9GI7aws-16" source="7_GUIzc6ZlY1Rx7S3d0O-7" target="aIT9Nde6jPvjy9GI7aws-78" edge="1">
          <mxGeometry relative="1" as="geometry" />
        </mxCell>
        <mxCell id="7_GUIzc6ZlY1Rx7S3d0O-13" style="edgeStyle=orthogonalEdgeStyle;orthogonalLoop=1;jettySize=auto;html=1;entryX=0.5;entryY=1;entryDx=0;entryDy=0;elbow=vertical;rounded=1;labelBackgroundColor=none;strokeColor=#A8201A;fontColor=default;" parent="aIT9Nde6jPvjy9GI7aws-16" source="7_GUIzc6ZlY1Rx7S3d0O-7" target="aIT9Nde6jPvjy9GI7aws-28" edge="1">
          <mxGeometry relative="1" as="geometry" />
        </mxCell>
        <mxCell id="7_GUIzc6ZlY1Rx7S3d0O-7" value="Actualizar Estado Camión" style="shape=ext;rounded=1;html=1;whiteSpace=wrap;labelBackgroundColor=none;fillColor=#FAE5C7;strokeColor=#0F8B8D;fontColor=#143642;" parent="aIT9Nde6jPvjy9GI7aws-16" vertex="1">
          <mxGeometry x="50" y="761" width="110" height="50" as="geometry" />
        </mxCell>
        <mxCell id="aIT9Nde6jPvjy9GI7aws-26" value="«datastore»&lt;br&gt;&lt;b&gt;&lt;u&gt;ÓRDEN DE TRANSPORTE&lt;/u&gt;&lt;/b&gt;" style="html=1;whiteSpace=wrap;movable=1;resizable=1;rotatable=1;deletable=1;editable=1;locked=0;connectable=1;labelBackgroundColor=none;fillColor=#FAE5C7;strokeColor=#0F8B8D;fontColor=#143642;" parent="aIT9Nde6jPvjy9GI7aws-16" vertex="1">
          <mxGeometry x="335" y="-29" width="110" height="61" as="geometry" />
        </mxCell>
        <mxCell id="aIT9Nde6jPvjy9GI7aws-81" style="edgeStyle=orthogonalEdgeStyle;orthogonalLoop=1;jettySize=auto;html=1;elbow=vertical;rounded=1;labelBackgroundColor=none;strokeColor=#A8201A;fontColor=default;" parent="aIT9Nde6jPvjy9GI7aws-16" source="aIT9Nde6jPvjy9GI7aws-26" target="aIT9Nde6jPvjy9GI7aws-79" edge="1">
          <mxGeometry relative="1" as="geometry" />
        </mxCell>
        <mxCell id="7_GUIzc6ZlY1Rx7S3d0O-8" style="edgeStyle=orthogonalEdgeStyle;orthogonalLoop=1;jettySize=auto;html=1;entryX=0;entryY=0.75;entryDx=0;entryDy=0;elbow=vertical;rounded=1;labelBackgroundColor=none;strokeColor=#A8201A;fontColor=default;" parent="aIT9Nde6jPvjy9GI7aws-16" source="7_GUIzc6ZlY1Rx7S3d0O-4" target="aIT9Nde6jPvjy9GI7aws-26" edge="1">
          <mxGeometry relative="1" as="geometry" />
        </mxCell>
        <mxCell id="7_GUIzc6ZlY1Rx7S3d0O-17" style="edgeStyle=orthogonalEdgeStyle;orthogonalLoop=1;jettySize=auto;html=1;elbow=vertical;rounded=1;labelBackgroundColor=none;strokeColor=#A8201A;fontColor=default;" parent="aIT9Nde6jPvjy9GI7aws-13" source="7_GUIzc6ZlY1Rx7S3d0O-16" target="aIT9Nde6jPvjy9GI7aws-39" edge="1">
          <mxGeometry relative="1" as="geometry" />
        </mxCell>
      </root>
    </mxGraphModel>
  </diagram>
</mxfile>
